<svg width="425.2" height="425.2" xmlns="http://www.w3.org/2000/svg" xml:space="preserve" version="1.1">
 <defs>
  <linearGradient y2="0.5009" x2="3.00161" y1="0.5009" x1="-43.70622" id="SVGID_00000008109812097711422750000002865673873404915371_">
   <stop stop-color="#E84948" offset="0"/>
   <stop stop-color="#CB242D" offset="1"/>
  </linearGradient>
  <linearGradient y2="0.5009" x2="16.21953" y1="0.5009" x1="-31.48666" id="SVGID_00000046333365602417988950000006547601459621240245_">
   <stop stop-color="#C9B13C" offset="0"/>
   <stop stop-color="#FEF1AC" offset="1"/>
  </linearGradient>
  <linearGradient y2="0.50149" x2="23.63328" y1="0.50149" x1="-14.1403" id="SVGID_00000005981834011607148730000006280333045232321449_">
   <stop stop-color="#E84948" offset="0"/>
   <stop stop-color="#CB242D" offset="1"/>
  </linearGradient>
  <linearGradient y2="0.50149" x2="34.32288" y1="0.50149" x1="-4.25807" id="SVGID_00000183967845751431008380000000707054004774633123_">
   <stop stop-color="#C9B13C" offset="0"/>
   <stop stop-color="#FEF1AC" offset="1"/>
  </linearGradient>
  <linearGradient y2="0.49918" x2="1.54955" y1="0.49918" x1="-1.86263" id="SVGID_00000000906660301865876770000012050120830982711446_">
   <stop stop-color="#E84948" offset="0"/>
   <stop stop-color="#CB242D" offset="1"/>
  </linearGradient>
  <linearGradient y2="0.49918" x2="2.51517" y1="0.49918" x1="-0.96994" id="SVGID_00000114065277071604058080000001609619735274618013_">
   <stop stop-color="#C9B13C" offset="0"/>
   <stop stop-color="#FEF1AC" offset="1"/>
  </linearGradient>
  <linearGradient y2="0.49771" x2="1.94959" y1="0.49771" x1="-172.20408" id="SVGID_00000047029793222301036210000008836438138928478392_">
   <stop stop-color="#135792" offset="0"/>
   <stop stop-color="#145A95" offset="0.0555"/>
   <stop stop-color="#1C64A4" offset="0.3576"/>
   <stop stop-color="#206BAE" offset="0.6686"/>
   <stop stop-color="#206DB3" offset="1"/>
  </linearGradient>
  <linearGradient y2="0.49792" x2="1.38032" y1="0.49792" x1="-72.80592" id="SVGID_00000080916800170066021510000003588967809740141722_">
   <stop stop-color="#135792" offset="0"/>
   <stop stop-color="#145A95" offset="0.0555"/>
   <stop stop-color="#1C64A4" offset="0.3576"/>
   <stop stop-color="#206BAE" offset="0.6686"/>
   <stop stop-color="#206DB3" offset="1"/>
  </linearGradient>
  <linearGradient y2="0.50004" x2="0.99997" y1="0.50004" x1="0" id="SVGID_1_">
   <stop stop-color="#EB615F" offset="0"/>
   <stop stop-color="#CB242D" offset="1"/>
  </linearGradient>
  <linearGradient y2="0.50001" x2="0.99996" y1="0.50001" x1="-0.00008" id="SVGID_00000053546873308940033230000002352191359645355140_">
   <stop stop-color="#C9B13C" offset="0"/>
   <stop stop-color="#FEF1AC" offset="1"/>
  </linearGradient>
  <linearGradient y2="1.39678" x2="1.58832" y1="0.11117" x1="0.36029" id="SVGID_00000069391543980178225840000001205665999488290432_">
   <stop stop-color="#C9B13C" offset="0"/>
   <stop stop-color="#FEF1AC" offset="1"/>
  </linearGradient>
  <linearGradient y2="0.89559" x2="-0.22115" y1="0.07619" x1="0.78458" id="SVGID_00000047740805967109622250000009210075538381796005_">
   <stop stop-color="#C9B13C" offset="0"/>
   <stop stop-color="#FEF1AC" offset="1"/>
  </linearGradient>
  <linearGradient y2="0.10955" x2="0.14384" y1="0.84292" x1="0.75376" id="SVGID_00000002376400492855009410000002856839963244979840_">
   <stop stop-opacity="0.5" stop-color="#000000" offset="0.1421"/>
   <stop stop-opacity="0" stop-color="#FEF1AC" offset="0.4175"/>
  </linearGradient>
 </defs>
 <g>
  <title>Layer 1</title>
  <path id="svg_1" fill="none" d="m159.56,114.09c1.27,0.51 2.52,1.03 3.73,1.55c-1.22,-0.52 -2.46,-1.04 -3.73,-1.55z" class="st0"/>
  <path id="svg_2" fill="none" d="m214.01,149.41c0.46,-0.12 0.93,-0.23 1.41,-0.35c0.92,-0.22 1.83,-0.42 2.72,-0.61c-0.89,0.19 -1.8,0.39 -2.72,0.61c-0.48,0.11 -0.95,0.23 -1.41,0.35z" class="st0"/>
  <path id="svg_3" fill="none" d="m172.12,132.05c6.5,-0.39 12.69,-0.57 18.53,-0.61c-1.41,-1.04 -2.99,-2.18 -4.75,-3.36c1.75,1.19 3.34,2.32 4.75,3.36c-5.85,0.03 -12.04,0.22 -18.53,0.61z" class="st0"/>
  <path id="svg_4" fill="url(#SVGID_1_)" d="m101.44,143.68c2.89,-0.79 5.86,-1.56 8.92,-2.31c2.04,-0.5 4.12,-0.99 6.24,-1.47c1.06,-0.24 2.13,-0.47 3.2,-0.71c7.54,-1.62 15.53,-3.08 23.95,-4.28c7.55,-1.08 14.82,-1.86 21.77,-2.41c2.23,-0.18 4.43,-0.33 6.6,-0.46c6.5,-0.39 12.69,-0.57 18.53,-0.61c-1.41,-1.04 -2.99,-2.18 -4.75,-3.36c-0.62,-0.42 -1.27,-0.85 -1.94,-1.29c-1.06,-0.69 -2.17,-1.4 -3.34,-2.12c-0.88,-0.54 -1.8,-1.09 -2.74,-1.64c-0.74,-0.43 -1.5,-0.86 -2.27,-1.29c-0.45,-0.25 -0.9,-0.5 -1.36,-0.75c-1.3,-0.7 -2.63,-1.41 -4.03,-2.1c-2.19,-1.1 -4.5,-2.18 -6.93,-3.24c-1.21,-0.53 -2.46,-1.05 -3.73,-1.55c-2.55,-1.02 -5.21,-1.99 -7.99,-2.91c-4.17,-1.37 -8.6,-2.61 -13.29,-3.64c-8.72,4.2 -26.27,11.21 -49.26,10.54c-26.82,-0.78 -46.13,-11.57 -54.38,-16.85c0.66,4.98 3.12,18.4 14.29,29.77c17.31,17.62 40.94,15.43 44.11,15.08c1.35,-0.41 2.73,-0.81 4.13,-1.21c1.4,-0.4 2.82,-0.8 4.27,-1.19z" class="st1"/>
  <path id="svg_5" fill="url(#SVGID_00000069391543980178225840000001205665999488290432_)" d="m234.79,146.35c11.68,7.37 26.56,17.68 42.75,31.46c1.16,0.98 2.32,1.99 3.49,3.01c1.17,1.02 2.34,2.06 3.52,3.12c1.18,1.06 2.37,2.13 3.56,3.22c1.78,1.64 3.58,3.32 5.38,5.04c1.2,1.15 2.41,2.32 3.62,3.5c1.81,1.78 3.63,3.6 5.45,5.47c3.62,3.7 7.25,7.57 10.88,11.62c9.63,-5.64 19.48,-10.92 29.6,-15.75c3.79,-1.81 7.6,-3.6 11.52,-5.08c12.17,-4.59 25.56,3.54 27.75,16.25c-6.72,-42.6 -14.62,-82.78 -23.21,-120.36c4.07,-1.96 18.19,-9.38 26.21,-26.48c7.87,-16.76 4.81,-32.05 3.75,-36.51l-19.99,8.03c-12.25,3.11 -24.07,-0.82 -32.84,-5.24c-11.19,-4.49 -27.88,-10.63 -48.67,-16.21c-34.97,-9.39 -52.87,-13.97 -73.24,-8.57c-9.24,2.45 -27.75,9.24 -45.96,31.38c1.08,12.83 4.32,31.84 14.32,52.52c15.87,32.78 39.85,51.36 52.11,59.58z"/>
  <path id="svg_6" fill="url(#SVGID_00000053546873308940033230000002352191359645355140_)" d="m202.64,153c3.39,-1.29 7.19,-2.53 11.37,-3.59c0.46,-0.12 0.93,-0.23 1.41,-0.35c0.92,-0.22 1.83,-0.42 2.72,-0.61c5.37,-1.13 10.28,-1.71 14.57,-1.99c0.71,-0.05 1.41,-0.08 2.09,-0.11c-12.26,-8.22 -36.25,-26.8 -52.11,-59.59c-10,-20.68 -13.24,-39.69 -14.32,-52.52c-47.63,3.32 -84.35,23.89 -91.58,52.37c-1.38,5.44 -2.04,12.56 -0.17,21.45c11.91,-2.83 34.46,-6.53 61.67,-0.52c4.68,1.03 9.12,2.27 13.29,3.64c2.78,0.91 5.45,1.89 7.99,2.91c1.27,0.51 2.52,1.03 3.73,1.55c2.43,1.05 4.74,2.14 6.93,3.24c1.39,0.7 2.73,1.4 4.03,2.1c0.46,0.25 0.91,0.5 1.36,0.75c0.77,0.43 1.53,0.86 2.27,1.29c0.94,0.55 1.86,1.1 2.74,1.64c1.17,0.72 2.28,1.43 3.34,2.12c0.67,0.44 1.31,0.87 1.94,1.29c1.75,1.19 3.34,2.32 4.75,3.36c-5.84,0.04 -12.03,0.22 -18.53,0.61c-2.17,0.13 -4.37,0.28 -6.6,0.46c-6.95,0.55 -14.22,1.33 -21.77,2.41c-8.42,1.2 -16.42,2.66 -23.95,4.28c-1.08,0.23 -2.14,0.47 -3.2,0.71c-2.12,0.48 -4.2,0.97 -6.24,1.47c-3.06,0.75 -6.04,1.52 -8.92,2.31c-1.44,0.39 -2.86,0.79 -4.26,1.19c-1.4,0.4 -2.78,0.81 -4.13,1.21c0,0 0,0 0,0c5.24,4.25 11.48,8.35 18.83,11.69c36.25,16.47 73.27,2.58 84.54,-2.17c1.26,-0.58 2.6,-1.16 4.03,-1.74c0.69,-0.29 1.43,-0.58 2.18,-0.86z"/>
  <path id="svg_7" fill="url(#SVGID_00000008109812097711422750000002865673873404915371_)" d="m180.62,124.66c1.17,0.72 2.28,1.43 3.34,2.12c-1.06,-0.69 -2.17,-1.4 -3.34,-2.12z"/>
  <path id="svg_8" fill="url(#SVGID_00000046333365602417988950000006547601459621240245_)" d="m180.62,124.66c1.17,0.72 2.28,1.43 3.34,2.12c-1.06,-0.69 -2.17,-1.4 -3.34,-2.12z"/>
  <path id="svg_9" fill="url(#SVGID_00000005981834011607148730000006280333045232321449_)" d="m97.17,144.87c-1.4,0.4 -2.78,0.81 -4.13,1.21c0,0 0,0 0,0c1.36,-0.4 2.73,-0.81 4.13,-1.21z"/>
  <path id="svg_10" fill="url(#SVGID_00000183967845751431008380000000707054004774633123_)" d="m97.17,144.87c-1.4,0.4 -2.78,0.81 -4.13,1.21c0,0 0,0 0,0c1.36,-0.4 2.73,-0.81 4.13,-1.21z"/>
  <path id="svg_11" fill="url(#SVGID_00000000906660301865876770000012050120830982711446_)" d="m119.8,139.2c7.54,-1.62 15.53,-3.08 23.95,-4.28c7.55,-1.08 14.82,-1.86 21.77,-2.41c-6.95,0.55 -14.22,1.33 -21.77,2.41c-8.42,1.2 -16.41,2.65 -23.95,4.28z"/>
  <path id="svg_12" fill="url(#SVGID_00000114065277071604058080000001609619735274618013_)" d="m119.8,139.2c7.54,-1.62 15.53,-3.08 23.95,-4.28c7.55,-1.08 14.82,-1.86 21.77,-2.41c-6.95,0.55 -14.22,1.33 -21.77,2.41c-8.42,1.2 -16.41,2.65 -23.95,4.28z"/>
  <path id="svg_13" fill="url(#SVGID_00000047740805967109622250000009210075538381796005_)" d="m148.82,349.14c35.13,-36.83 72.47,-71.23 113.2,-101.82c16.55,-12.44 33.6,-24.09 51.42,-34.52c-3.63,-4.05 -7.27,-7.92 -10.88,-11.62c-1.82,-1.87 -3.64,-3.69 -5.45,-5.47c-1.21,-1.19 -2.41,-2.35 -3.62,-3.5c-1.8,-1.72 -3.6,-3.4 -5.38,-5.04c-1.19,-1.09 -2.38,-2.17 -3.56,-3.22c-1.18,-1.06 -2.35,-2.1 -3.52,-3.12c-1.17,-1.02 -2.33,-2.02 -3.49,-3.01c-16.19,-13.79 -31.07,-24.09 -42.75,-31.46c-0.68,0.03 -1.37,0.07 -2.09,0.11c-4.28,0.27 -9.2,0.86 -14.57,1.99c-0.89,0.19 -1.8,0.39 -2.72,0.61c-0.47,0.11 -0.94,0.23 -1.41,0.35c-4.18,1.06 -7.98,2.3 -11.37,3.59c-0.75,0.29 -1.49,0.58 -2.2,0.87c-1.43,0.58 -2.77,1.17 -4.03,1.74c3.69,22.4 8.89,72.71 -13.06,130.32c-10.89,28.57 -25.52,51.26 -39.46,68.48c0.02,0.02 0.03,0.04 0.05,0.06c1.85,-2.02 3.34,-3.71 4.89,-5.34z"/>
  <path id="svg_14" d="m382.46,209.06c-0.04,-0.29 -0.09,-0.57 -0.14,-0.85c0.05,0.3 0.1,0.61 0.14,0.91c0.01,-0.01 0,-0.04 0,-0.06z"/>
  <path id="svg_15" fill="url(#SVGID_00000002376400492855009410000002856839963244979840_)" d="m385.33,61.38c7.87,-16.76 4.81,-32.05 3.75,-36.51l-19.99,8.03c-12.27,3.1 -24.09,-0.83 -32.86,-5.25c-11.19,-4.49 -27.88,-10.63 -48.67,-16.21c-34.97,-9.39 -52.87,-13.97 -73.24,-8.57c-9.24,2.45 -27.75,9.24 -45.96,31.38c1.08,12.83 4.32,31.84 14.32,52.52c15.86,32.79 39.85,51.37 52.11,59.59c-0.68,0.03 -1.37,0.07 -2.09,0.11c-4.28,0.27 -9.2,0.86 -14.57,1.99c-0.89,0.19 -1.8,0.39 -2.72,0.61c-0.47,0.11 -0.94,0.23 -1.41,0.35c-4.18,1.06 -7.98,2.3 -11.37,3.59c-0.75,0.29 -1.49,0.58 -2.2,0.87c-1.43,0.58 -2.77,1.17 -4.03,1.74c3.69,22.4 8.89,72.71 -13.06,130.32c-10.89,28.57 -25.52,51.26 -39.46,68.48c0.02,0.02 0.03,0.04 0.05,0.06c1.83,-2 3.32,-3.69 4.88,-5.32c35.13,-36.83 72.47,-71.23 113.2,-101.82c16.55,-12.44 33.6,-24.09 51.42,-34.52c9.63,-5.64 19.48,-10.92 29.6,-15.75c3.79,-1.81 7.6,-3.6 11.52,-5.08c12.17,-4.59 25.56,3.54 27.75,16.25c-6.72,-42.6 -14.62,-82.78 -23.21,-120.36c4.1,-1.99 18.22,-9.4 26.24,-26.5z"/>
  <path id="svg_16" fill="url(#SVGID_00000047029793222301036210000008836438138928478392_)" d="m143.9,354.4c-0.15,-0.19 -0.28,-0.35 -0.41,-0.51l0.46,0.57c-0.02,-0.02 -0.03,-0.04 -0.05,-0.06z"/>
  <path id="svg_17" fill="url(#SVGID_00000080916800170066021510000003588967809740141722_)" d="m142.29,352.39c0.32,0.42 0.69,0.87 1.2,1.5l-1.2,-1.5z"/>
 </g>
</svg>