<svg width="425.2" height="425.2" xmlns="http://www.w3.org/2000/svg" xml:space="preserve" version="1.1">
 <defs>
  <linearGradient y2="0.5009" x2="3.00161" y1="0.5009" x1="-43.70622" id="SVGID_00000008109812097711422750000002865673873404915371_">
   <stop stop-color="#E84948" offset="0"/>
   <stop stop-color="#CB242D" offset="1"/>
  </linearGradient>
  <linearGradient y2="0.5009" x2="16.21953" y1="0.5009" x1="-31.48666" id="SVGID_00000046333365602417988950000006547601459621240245_">
   <stop stop-color="#C9B13C" offset="0"/>
   <stop stop-color="#FEF1AC" offset="1"/>
  </linearGradient>
  <linearGradient y2="0.50149" x2="23.63328" y1="0.50149" x1="-14.1403" id="SVGID_00000005981834011607148730000006280333045232321449_">
   <stop stop-color="#E84948" offset="0"/>
   <stop stop-color="#CB242D" offset="1"/>
  </linearGradient>
  <linearGradient y2="0.50149" x2="34.32288" y1="0.50149" x1="-4.25807" id="SVGID_00000183967845751431008380000000707054004774633123_">
   <stop stop-color="#C9B13C" offset="0"/>
   <stop stop-color="#FEF1AC" offset="1"/>
  </linearGradient>
  <linearGradient y2="0.49918" x2="1.54955" y1="0.49918" x1="-1.86263" id="SVGID_00000000906660301865876770000012050120830982711446_">
   <stop stop-color="#E84948" offset="0"/>
   <stop stop-color="#CB242D" offset="1"/>
  </linearGradient>
  <linearGradient y2="0.49918" x2="2.51517" y1="0.49918" x1="-0.96994" id="SVGID_00000114065277071604058080000001609619735274618013_">
   <stop stop-color="#C9B13C" offset="0"/>
   <stop stop-color="#FEF1AC" offset="1"/>
  </linearGradient>
  <linearGradient y2="0.49771" x2="1.94959" y1="0.49771" x1="-172.20408" id="SVGID_00000047029793222301036210000008836438138928478392_">
   <stop stop-color="#135792" offset="0"/>
   <stop stop-color="#145A95" offset="0.0555"/>
   <stop stop-color="#1C64A4" offset="0.3576"/>
   <stop stop-color="#206BAE" offset="0.6686"/>
   <stop stop-color="#206DB3" offset="1"/>
  </linearGradient>
  <linearGradient y2="0.49792" x2="1.38032" y1="0.49792" x1="-72.80592" id="SVGID_00000080916800170066021510000003588967809740141722_">
   <stop stop-color="#135792" offset="0"/>
   <stop stop-color="#145A95" offset="0.0555"/>
   <stop stop-color="#1C64A4" offset="0.3576"/>
   <stop stop-color="#206BAE" offset="0.6686"/>
   <stop stop-color="#206DB3" offset="1"/>
  </linearGradient>
  <linearGradient y2="0.97444" x2="0.75892" y1="-0.01994" x1="0.38219" id="SVGID_00000139973342990865895930000013568644523053766847_">
   <stop stop-color="#206DB3" offset="0.2608"/>
   <stop stop-color="#3F7CBB" offset="0.3287"/>
   <stop stop-color="#588DC5" offset="0.4178"/>
   <stop stop-color="#689BCC" offset="0.509"/>
   <stop stop-color="#71A4D1" offset="0.6026"/>
   <stop stop-color="#75A7D3" offset="0.7023"/>
  </linearGradient>
 </defs>
 <g>
  <title>Layer 1</title>
  <path id="svg_1" fill="none" d="m159.56,114.09c1.27,0.51 2.52,1.03 3.73,1.55c-1.22,-0.52 -2.46,-1.04 -3.73,-1.55z" class="st0"/>
  <path id="svg_2" fill="none" d="m214.01,149.41c0.46,-0.12 0.93,-0.23 1.41,-0.35c0.92,-0.22 1.83,-0.42 2.72,-0.61c-0.89,0.19 -1.8,0.39 -2.72,0.61c-0.48,0.11 -0.95,0.23 -1.41,0.35z" class="st0"/>
  <path id="svg_3" fill="none" d="m172.12,132.05c6.5,-0.39 12.69,-0.57 18.53,-0.61c-1.41,-1.04 -2.99,-2.18 -4.75,-3.36c1.75,1.19 3.34,2.32 4.75,3.36c-5.85,0.03 -12.04,0.22 -18.53,0.61z" class="st0"/>
  <path id="svg_7" fill="url(#SVGID_00000008109812097711422750000002865673873404915371_)" d="m180.62,124.66c1.17,0.72 2.28,1.43 3.34,2.12c-1.06,-0.69 -2.17,-1.4 -3.34,-2.12z"/>
  <path id="svg_8" fill="url(#SVGID_00000046333365602417988950000006547601459621240245_)" d="m180.62,124.66c1.17,0.72 2.28,1.43 3.34,2.12c-1.06,-0.69 -2.17,-1.4 -3.34,-2.12z"/>
  <path id="svg_9" fill="url(#SVGID_00000005981834011607148730000006280333045232321449_)" d="m97.17,144.87c-1.4,0.4 -2.78,0.81 -4.13,1.21c0,0 0,0 0,0c1.36,-0.4 2.73,-0.81 4.13,-1.21z"/>
  <path id="svg_10" fill="url(#SVGID_00000183967845751431008380000000707054004774633123_)" d="m97.17,144.87c-1.4,0.4 -2.78,0.81 -4.13,1.21c0,0 0,0 0,0c1.36,-0.4 2.73,-0.81 4.13,-1.21z"/>
  <path id="svg_11" fill="url(#SVGID_00000000906660301865876770000012050120830982711446_)" d="m119.8,139.2c7.54,-1.62 15.53,-3.08 23.95,-4.28c7.55,-1.08 14.82,-1.86 21.77,-2.41c-6.95,0.55 -14.22,1.33 -21.77,2.41c-8.42,1.2 -16.41,2.65 -23.95,4.28z"/>
  <path id="svg_12" fill="url(#SVGID_00000114065277071604058080000001609619735274618013_)" d="m119.8,139.2c7.54,-1.62 15.53,-3.08 23.95,-4.28c7.55,-1.08 14.82,-1.86 21.77,-2.41c-6.95,0.55 -14.22,1.33 -21.77,2.41c-8.42,1.2 -16.41,2.65 -23.95,4.28z"/>
  <path id="svg_14" d="m382.46,209.06c-0.04,-0.29 -0.09,-0.57 -0.14,-0.85c0.05,0.3 0.1,0.61 0.14,0.91c0.01,-0.01 0,-0.04 0,-0.06z"/>
  <path id="svg_16" fill="url(#SVGID_00000047029793222301036210000008836438138928478392_)" d="m143.9,354.4c-0.15,-0.19 -0.28,-0.35 -0.41,-0.51l0.46,0.57c-0.02,-0.02 -0.03,-0.04 -0.05,-0.06z"/>
  <path id="svg_17" fill="url(#SVGID_00000080916800170066021510000003588967809740141722_)" d="m142.29,352.39c0.32,0.42 0.69,0.87 1.2,1.5l-1.2,-1.5z"/>
  <path id="svg_18" fill="url(#SVGID_00000139973342990865895930000013568644523053766847_)" d="m382.82,211.05c-1.44,-10.37 -3.12,-20.34 -4.97,-29.88c-9.52,3.98 -21.28,9.43 -34.8,15.88c-10.12,4.84 -19.97,10.12 -29.6,15.75c-5.94,3.48 -23.08,13.47 -51.42,34.52c-5.37,3.99 -48.51,36.19 -80.04,67.32c-6.14,6.06 -20.73,20.86 -37.6,39.34c-0.1,0.11 -0.34,0.37 -0.44,0.48c-9.95,-7.47 -22.64,-18.64 -34.62,-34.47c-9.52,-12.58 -15.98,-24.66 -20.36,-34.53c-11.35,7.66 -22.7,15.32 -34.04,22.98c8.3,18.65 20.07,40.95 36.79,64.39c15.27,21.4 30.93,38.52 44.73,51.79c48.26,-59.82 114.8,-124.79 204.92,-176.62c14.57,-8.38 29.01,-15.98 43.23,-22.89c-0.53,-4.6 -1.12,-9.29 -1.78,-14.06z"/>
 </g>
</svg>